<svg xmlns="http://www.w3.org/2000/svg" viewBox="0 0 200 140" fill="none">
  <!-- Before code (error) -->
  <rect x="10" y="20" width="72" height="100" rx="8" fill="#FEE2E2" stroke="#EF4444" stroke-width="1.5" opacity="0.6"/>
  <rect x="20" y="36" width="36" height="5" rx="2.5" fill="#EF4444" opacity="0.4"/>
  <rect x="20" y="48" width="50" height="5" rx="2.5" fill="#EF4444" opacity="0.4"/>
  <rect x="20" y="60" width="30" height="5" rx="2.5" fill="#EF4444" opacity="0.4"/>
  <rect x="20" y="72" width="44" height="5" rx="2.5" fill="#EF4444" opacity="0.4"/>
  <!-- X mark -->
  <circle cx="64" cy="102" r="10" fill="#EF4444" opacity="0.7"/>
  <path d="M59 97 L69 107 M69 97 L59 107" stroke="white" stroke-width="2" stroke-linecap="round"/>

  <!-- Arrow with wrench icon -->
  <line x1="90" y1="70" x2="110" y2="70" stroke="#3E9BA4" stroke-width="2.5" stroke-linecap="round"/>
  <path d="M106 64 L112 70 L106 76" stroke="#3E9BA4" stroke-width="2.5" stroke-linecap="round" stroke-linejoin="round"/>
  <circle cx="100" cy="54" r="9" fill="#3E9BA4"/>
  <path d="M96.5 54 L100 50.5 L103.5 54 L100 57.5 Z" fill="white"/>

  <!-- After code (fixed) -->
  <rect x="118" y="20" width="72" height="100" rx="8" fill="#D1FAE5" stroke="#10B981" stroke-width="1.5"/>
  <rect x="128" y="36" width="36" height="5" rx="2.5" fill="#10B981" opacity="0.5"/>
  <rect x="128" y="48" width="50" height="5" rx="2.5" fill="#10B981" opacity="0.5"/>
  <rect x="128" y="60" width="30" height="5" rx="2.5" fill="#10B981" opacity="0.5"/>
  <rect x="128" y="72" width="44" height="5" rx="2.5" fill="#10B981" opacity="0.5"/>
  <!-- Checkmark -->
  <circle cx="172" cy="102" r="10" fill="#10B981"/>
  <path d="M167 102 L170 105 L177 98" stroke="white" stroke-width="2" stroke-linecap="round" stroke-linejoin="round"/>
</svg>
